# xmcd
#
# Track frame offsets:
#	150
#	11679
#	26066
#	35859
#	51641
#	68897
#	83331
#	92252
#	122917
#	135437
#
# Disc length: 1946 seconds
#
# Revision: 0
# Processed by: cddbd v1.5.2PL0 Copyright (c) Steve Scherf et al.
# Submitted via: EasyCDDAExtractor 12.0.7.1
#
DISCID=8007980a
DTITLE=John McEuen
DYEAR=1985
DGENRE=
TTITLE0=Fly Trouble
TTITLE1=She's Crazy For Leavin'
TTITLE2=Blue Days Black Nights
TTITLE3=Reno And Me
TTITLE4=Fool In The Mirror
TTITLE5=John Hardy
TTITLE6=Bach To The Country
TTITLE7=The Mountain Whippoorwill
TTITLE8=Miner's Night Out
TTITLE9=Sleepwalk
EXTD=
EXTT0=
EXTT1=
EXTT2=
EXTT3=
EXTT4=
EXTT5=
EXTT6=
EXTT7=
EXTT8=
EXTT9=
PLAYORDER=
